<mxfile host="app.diagrams.net" modified="2023-04-07T13:10:23.019Z" agent="Mozilla/5.0 (Windows NT 10.0; Win64; x64) AppleWebKit/537.36 (KHTML, like Gecko) Chrome/110.0.0.0 Safari/537.36" version="21.1.5" etag="fee-tllNuQKBhR-3NoSM" type="github">
  <diagram name="Trang-1" id="aP7QvaDgtrFwL9fbbBjw">
    <mxGraphModel>
      <root>
        <mxCell id="0" />
        <mxCell id="1" parent="0" />
      </root>
    </mxGraphModel>
  </diagram>
</mxfile>
